<svg xmlns="http://www.w3.org/2000/svg" xmlns:xlink="http://www.w3.org/1999/xlink" width="128" height="128" viewBox="0 0 128 128"><defs><style>.a{fill:url(#a);}.b{fill:#39b54a;}.c{fill:#fff;}</style><linearGradient id="a" x1="-4.43" y1="121.42" x2="129.64" y2="8.92" gradientUnits="userSpaceOnUse"><stop offset="0" stop-color="#ffc985"/><stop offset="1" stop-color="#b5ec72"/></linearGradient></defs><title>icon</title><rect class="a" width="128" height="128"/><path d="M42.85,46.54c-1,.19-1.93.32-2.87.59-7.87,2.22-15.75,4.44-23.61,6.72a15.93,15.93,0,0,0-11,20.08c.73,2.5,1.42,5,2.14,7.53a15.94,15.94,0,0,0,20,11.3q11.63-3.24,23.21-6.62a15.94,15.94,0,0,0,11-20.29c-.72-2.48-1.4-5-2.11-7.43-.16-.55-.33-1.08-.54-1.61-.66-1.73-1-1.88-2.76-1.45a4.22,4.22,0,0,0-3.29,3.94c-.11,2.11-.19,4.23-.13,6.34a12.34,12.34,0,0,0,.68,2.87,7.3,7.3,0,0,1-1.12,6.62,7.4,7.4,0,0,1-4.12,2.8l-21.07,6c-.75.21-1.49.44-2.24.64a7.33,7.33,0,0,1-9.12-5c-.87-2.76-1.64-5.55-2.38-8.35a7.33,7.33,0,0,1,5.2-9.16Q28,59.38,37.29,56.79a1.68,1.68,0,0,0,1.43-1.5,16.86,16.86,0,0,1,4-8.15A2.54,2.54,0,0,0,43,46.8Z"/><path d="M79,52.62l1-8.44a6.64,6.64,0,0,0-.74-.08c-7.19-.17-14.37-.35-21.56-.5A16,16,0,0,0,41.4,59.15c-.09,2.93-.15,5.85-.19,8.78A15.78,15.78,0,0,0,43,75.37c.29.58.6.77,1.24.56,1.17-.38,2.41-.6,3.54-1.06a7.09,7.09,0,0,0,2.15-1.45,2.14,2.14,0,0,0,.44-2.67,8,8,0,0,1-.52-3.09c0-2.68.09-5.36.16-8a7.37,7.37,0,0,1,7.68-7.45c6.77.12,13.54.3,20.31.45Z"/><path d="M60.27,84.09c.53,0,.84.08,1.15.08,6.41.15,12.82.28,19.23.45A15.9,15.9,0,0,0,94.5,78.1,34.14,34.14,0,0,0,96.83,74L89,70.39a22.62,22.62,0,0,1-1.07,2.16,7.14,7.14,0,0,1-6.57,3.51q-7.51-.15-15-.34c-1.33,0-1.32,0-1.75,1.19A18.62,18.62,0,0,1,61.08,83C60.83,83.32,60.61,83.63,60.27,84.09Z"/><path class="b" d="M83.15,51.81A20.07,20.07,0,1,1,103.4,72,20.11,20.11,0,0,1,83.15,51.81Zm19,6.75-11-8.51L89,52.89l13,10.39L117.35,48l-2.26-2.34Z"/><path class="c" d="M102.15,58.56l12.94-13L117.35,48,102,63.28,89,52.89l2.18-2.84Z"/></svg>